<svg width="73" height="57" viewBox="0 0 73 57" fill="none" xmlns="http://www.w3.org/2000/svg">
<path d="M65.4095 41.804C64.6934 43.0444 63.5048 43.9443 62.1054 44.3057C60.7059 44.6672 59.2101 44.4606 57.9471 43.7314L5.56289 13.4873C4.29988 12.7581 3.37308 11.566 2.98637 10.1733C2.59967 8.78064 2.78473 7.3014 3.50086 6.06102C4.21699 4.82065 5.40552 3.92075 6.80499 3.5593C8.20446 3.19785 9.70023 3.40444 10.9632 4.13365L63.3475 34.3777C64.6105 35.1069 65.5373 36.299 65.924 37.6917C66.3107 39.0844 66.1256 40.5636 65.4095 41.804ZM10.006 22.2883L2.86272 18.1642C0.714329 21.8853 0.159121 26.323 1.31924 30.5011C2.47935 34.6792 5.25976 38.2554 9.04881 40.4431L32.8598 54.1903C36.6489 56.378 41.1362 56.9978 45.3346 55.9134C49.533 54.829 53.0986 52.1293 55.247 48.4082L10.006 22.2883ZM18.4256 2.20627L13.6634 -0.543191L19.0638 -9.89687C20.496 -12.3776 22.8731 -14.1774 25.672 -14.9003C28.471 -15.6232 31.4625 -15.21 33.9885 -13.7516L67.3239 5.49459C69.85 6.953 71.7036 9.33714 72.477 12.1225C73.2504 14.9079 72.8803 17.8664 71.448 20.3472L66.0476 29.7009L18.4256 2.20627ZM60.5735 17.1867C60.2154 17.8069 60.1229 18.5465 60.3163 19.2428C60.5096 19.9392 60.973 20.5352 61.6045 20.8998C62.236 21.2644 62.9839 21.3677 63.6836 21.187C64.3834 21.0063 64.9776 20.5563 65.3357 19.9361C65.6938 19.316 65.7863 18.5763 65.593 17.88C65.3996 17.1836 64.9362 16.5876 64.3047 16.223C63.6732 15.8584 62.9253 15.7551 62.2256 15.9358C61.5258 16.1166 60.9316 16.5665 60.5735 17.1867ZM53.7493 7.01093C53.3912 7.63112 53.2987 8.37074 53.492 9.06709C53.6854 9.76344 54.1488 10.3595 54.7803 10.7241C55.4118 11.0887 56.1597 11.192 56.8594 11.0113C57.5591 10.8305 58.1534 10.3806 58.5115 9.76039C58.8695 9.1402 58.9621 8.40058 58.7687 7.70423C58.5754 7.00788 58.112 6.41184 57.4805 6.04724C56.8489 5.68264 56.1011 5.57934 55.4013 5.76007C54.7016 5.94079 54.1073 6.39074 53.7493 7.01093ZM41.5247 6.18885C41.1666 6.80904 41.0741 7.54866 41.2674 8.24501C41.4608 8.94136 41.9242 9.5374 42.5557 9.902C43.1872 10.2666 43.9351 10.3699 44.6348 10.1892C45.3346 10.0084 45.9288 9.5585 46.2869 8.93831C46.645 8.31812 46.7375 7.5785 46.5441 6.88215C46.3508 6.1858 45.8874 5.58976 45.2559 5.22516C44.6244 4.86056 43.8765 4.75726 43.1768 4.93799C42.477 5.11872 41.8828 5.56866 41.5247 6.18885ZM34.7005 -3.98691C34.3424 -3.36672 34.2499 -2.6271 34.4432 -1.93075C34.6366 -1.2344 35.1 -0.638359 35.7315 -0.273759C36.363 0.0908422 37.1109 0.194141 37.8106 0.0134147C38.5103 -0.167313 39.1046 -0.617261 39.4627 -1.23745C39.8207 -1.85763 39.9133 -2.59726 39.7199 -3.29361C39.5266 -3.98996 39.0632 -4.586 38.4316 -4.9506C37.8001 -5.3152 37.0523 -5.4185 36.3525 -5.23777C35.6528 -5.05704 35.0585 -4.60709 34.7005 -3.98691ZM22.4759 -4.80899C22.1178 -4.1888 22.0253 -3.44918 22.2186 -2.75283C22.412 -2.05648 22.8754 -1.46044 23.5069 -1.09584C24.1384 -0.731239 24.8863 -0.62794 25.586 -0.808667C26.2857 -0.989394 26.88 -1.43934 27.2381 -2.05953C27.5961 -2.67972 27.6887 -3.41934 27.4953 -4.11569C27.302 -4.81204 26.8386 -5.40808 26.2071 -5.77268C25.5756 -6.13728 24.8277 -6.24058 24.1279 -6.05985C23.4282 -5.87912 22.8339 -5.42917 22.4759 -4.80899Z" fill="white" fill-opacity="0.12"/>
</svg>
