<svg width="14" height="14" viewBox="0 0 14 14" fill="none" xmlns="http://www.w3.org/2000/svg">
<path d="M13.09 3.0325L10.9675 0.91C10.5459 0.487923 9.97404 0.250525 9.3775 0.25H4.6225C4.02596 0.250525 3.45405 0.487923 3.0325 0.91L0.91 3.0325C0.487923 3.45405 0.250525 4.02596 0.25 4.6225V11.5C0.25 12.0967 0.487053 12.669 0.90901 13.091C1.33097 13.5129 1.90326 13.75 2.5 13.75H11.5C12.0967 13.75 12.669 13.5129 13.091 13.091C13.5129 12.669 13.75 12.0967 13.75 11.5V4.6225C13.7495 4.02596 13.5121 3.45405 13.09 3.0325ZM4.09 1.9675C4.23373 1.83045 4.42392 1.75276 4.6225 1.75H9.3775C9.57608 1.75276 9.76627 1.83045 9.91 1.9675L11.1925 3.25H2.8075L4.09 1.9675ZM11.5 12.25H2.5C2.30109 12.25 2.11032 12.171 1.96967 12.0303C1.82902 11.8897 1.75 11.6989 1.75 11.5V4.75H12.25V11.5C12.25 11.6989 12.171 11.8897 12.0303 12.0303C11.8897 12.171 11.6989 12.25 11.5 12.25Z" fill="#5DE898"/>
</svg>
